<?xml version="1.0" encoding="UTF-8" standalone="no"?>
<!-- Created with Inkscape (http://www.inkscape.org/) -->

<svg
   xmlns:dc="http://purl.org/dc/elements/1.1/"
   xmlns:cc="http://creativecommons.org/ns#"
   xmlns:rdf="http://www.w3.org/1999/02/22-rdf-syntax-ns#"
   xmlns:svg="http://www.w3.org/2000/svg"
   xmlns="http://www.w3.org/2000/svg"
   xmlns:sodipodi="http://sodipodi.sourceforge.net/DTD/sodipodi-0.dtd"
   xmlns:inkscape="http://www.inkscape.org/namespaces/inkscape"
   width="640px"
   height="480px"
   id="svg2985"
   version="1.1"
   inkscape:version="0.48.5 r10040"
   sodipodi:docname="sciencefair.svg">
  <defs
     id="defs2987">
    <inkscape:perspective
       sodipodi:type="inkscape:persp3d"
       inkscape:vp_x="312.3688 : 409.0922 : 1"
       inkscape:vp_y="0 : 1000 : 0"
       inkscape:vp_z="757.461 : 376.1773 : 1"
       inkscape:persp3d-origin="446.49646 : 171.61702 : 1"
       id="perspective2993" />
    <inkscape:perspective
       sodipodi:type="inkscape:persp3d"
       inkscape:vp_x="358.42633 : 251.99196 : 1"
       inkscape:vp_y="0 : 1000 : 0"
       inkscape:vp_z="-29.871538 : 252.63735 : 1"
       inkscape:persp3d-origin="290.12845 : 172.63735 : 1"
       id="perspective2993-1" />
    <inkscape:perspective
       sodipodi:type="inkscape:persp3d"
       inkscape:vp_x="197.08007 : 408.17636 : 1"
       inkscape:vp_y="0 : 1000 : 0"
       inkscape:vp_z="-171.73262 : 177.12671 : 1"
       inkscape:persp3d-origin="27.08691 : 150.69409 : 1"
       id="perspective2993-0" />
  </defs>
  <sodipodi:namedview
     id="base"
     pagecolor="#ffffff"
     bordercolor="#666666"
     borderopacity="1.0"
     inkscape:pageopacity="0.0"
     inkscape:pageshadow="2"
     inkscape:zoom="1.5494505"
     inkscape:cx="348.35291"
     inkscape:cy="263.06249"
     inkscape:current-layer="layer1"
     inkscape:document-units="px"
     showgrid="false"
     inkscape:window-width="1680"
     inkscape:window-height="1026"
     inkscape:window-x="0"
     inkscape:window-y="0"
     inkscape:window-maximized="1" />
  <metadata
     id="metadata2990">
    <rdf:RDF>
      <cc:Work
         rdf:about="">
        <dc:format>image/svg+xml</dc:format>
        <dc:type
           rdf:resource="http://purl.org/dc/dcmitype/StillImage" />
        <dc:title></dc:title>
      </cc:Work>
    </rdf:RDF>
  </metadata>
  <g
     id="layer1"
     inkscape:label="Layer 1"
     inkscape:groupmode="layer">
    <path
       style="fill:#c7ffff;stroke:#000000;stroke-width:1px;stroke-linecap:butt;stroke-linejoin:miter;stroke-opacity:1;fill-opacity:1"
       d="M 92.290781,177.31206 332.37589,99.219857 521.47518,332.20568 202.09882,461.59228 z"
       id="path3245"
       inkscape:connector-curvature="0"
       sodipodi:nodetypes="ccccc" />
    <path
       style="fill:#5c7878;stroke:#000000;stroke-width:1px;stroke-linecap:butt;stroke-linejoin:miter;stroke-opacity:1;fill-opacity:1"
       d="M 91,177.31206 89.70922,53.39716 337.53901,-9.8510667 332.37589,99.865247 z"
       id="path3247"
       inkscape:connector-curvature="0"
       sodipodi:nodetypes="ccccc" />
    <path
       style="fill:#e7ffff;stroke:#000000;stroke-width:1px;stroke-linecap:butt;stroke-linejoin:miter;stroke-opacity:1;fill-opacity:1"
       d="m 520.82979,330.26951 0,-209.75178 L 337.53901,-9.8510667 332.37589,100.51064 z"
       id="path3249"
       inkscape:connector-curvature="0"
       sodipodi:nodetypes="ccccc" />
    <path
       style="fill:#ffffff;stroke:#000000;stroke-width:1px;stroke-linecap:butt;stroke-linejoin:miter;stroke-opacity:1;fill-opacity:1"
       d="m 449.48187,121.45788 -65.227,-57.657925 -3.65088,46.548685 68.29736,66.78512 z"
       id="path3262"
       inkscape:connector-curvature="0"
       sodipodi:nodetypes="ccccc" />
    <path
       style="fill:#956200;stroke:#000000;stroke-width:1px;stroke-linecap:butt;stroke-linejoin:miter;stroke-opacity:1;fill-opacity:1"
       d="m 146.94782,159.63549 0,-102.224571 70.36335,-18.853801 1.74149,97.347672 z"
       id="path3264"
       inkscape:connector-curvature="0" />
    <path
       style="fill:#583900;stroke:#000000;stroke-width:1px;stroke-linecap:butt;stroke-linejoin:miter;stroke-opacity:1;fill-opacity:1"
       d="m 210.39716,94.056735 0,14.198585 -8.39007,2.58156 -0.64539,-13.553195 z"
       id="path3266"
       inkscape:connector-curvature="0" />
    <g
       id="g3331">
      <path
         inkscape:connector-curvature="0"
         style="fill:#000000"
         d="m 254.92036,242.62239 c -0.32023,-0.51816 -0.32081,-2.33569 -9.1e-4,-4.03896 0.42259,-2.25266 0.0323,-4.17244 -1.43197,-7.04254 -1.93808,-3.79895 -1.98848,-4.5654 -1.35521,-20.61049 0.65341,-16.5553 0.64451,-16.67188 -1.35502,-17.74199 l -2.01276,-1.0772 0.18891,-28.95395 c 0.10389,-15.92468 0.14351,-30.03405 0.0881,-31.35416 -0.0634,-1.50786 -1.62337,-3.98924 -4.19604,-6.67431 -2.25234,-2.35074 -5.59325,-6.9529 -7.42423,-10.22701 -3.05006,-5.45402 -3.28561,-6.3891 -2.81045,-11.15714 0.28525,-2.86232 0.74879,-8.496171 1.03009,-12.519683 0.48674,-6.96173 3.76352,-25.0598 4.70832,-26.0046 0.24509,-0.2451 2.17556,-1.10332 4.28993,-1.90717 4.91964,-1.87037 17.10006,-9.87848 17.80013,-11.70282 0.29418,-0.76661 -0.13319,-3.27729 -0.94971,-5.57932 -3.09585,-8.72815 -2.98954,-10.97048 0.79175,-16.69895 3.82017,-5.7874 5.3128,-6.47655 12.33416,-5.69472 6.74836,0.75142 8.93243,1.7818 9.62485,4.54067 0.78515,3.12827 -0.17126,12.2817 -1.41301,13.52346 -0.53189,0.53188 -0.96553,3.0451 -0.96365,5.58494 0.005,5.76051 2.63471,10.5617 5.78647,10.5617 3.03945,0 6.87753,2.09865 11.05013,6.04218 3.47127,3.2807 3.60074,3.62445 4.23497,11.24445 0.89896,10.8006 3.68054,20.173282 6.56355,22.116272 1.09854,0.74036 1.05825,3.080161 -0.16393,9.519271 -0.57276,3.01763 -1.22033,6.7126 -1.43903,8.21104 -0.21872,1.49843 -1.22825,3.84787 -2.24342,5.22095 -1.01517,1.37309 -1.84576,3.09678 -1.84576,3.83041 0,2.56804 -1.15782,4.30567 -3.76854,5.65572 l -2.63249,1.36131 0,11.9176 c 0,6.55467 0.39024,14.67112 0.8672,18.03656 0.47696,3.36544 1.05782,11.41891 1.29079,17.8966 0.40696,11.31583 0.34265,11.85365 -1.64038,13.71649 -2.67866,2.51635 -3.69129,9.09693 -3.36606,21.87459 0.17171,6.74635 -0.10115,10.30175 -0.86086,11.21715 -0.61174,0.7371 -1.11225,3.03976 -1.11225,5.11703 0,3.31108 0.46647,4.16433 3.78242,6.91876 6.20691,5.15579 5.45198,5.73351 -7.49226,5.73351 l -11.27468,0 0.91988,-5.07503 c 0.70263,-3.87646 0.61535,-6.19805 -0.36959,-9.83015 -0.84906,-3.13107 -1.29451,-9.6582 -1.30421,-19.11097 -0.01,-9.31031 -0.37274,-14.71409 -1.0333,-15.37515 -0.68039,-0.68089 -2.0466,-0.75367 -4.11495,-0.21919 l -3.09639,0.80012 -0.72062,11.83173 c -0.4483,7.36071 -0.36711,13.88721 0.21488,17.27118 0.75119,4.36785 0.67815,5.83222 -0.37079,7.4331 -0.71845,1.0965 -1.4324,4.20392 -1.58652,6.90539 l -0.28025,4.91175 -5.17731,0.27184 c -2.8732,0.15085 -5.43643,-0.14745 -5.75956,-0.67027 z"
         id="path2279" />
      <g
         id="g3304">
        <path
           style="fill:#ffc66f;fill-opacity:1;stroke:#a2793b;stroke-width:4;stroke-linecap:butt;stroke-linejoin:miter;stroke-miterlimit:4;stroke-opacity:1;stroke-dasharray:none"
           d="m 225.24114,303.16312 0,50.98582"
           id="path3270"
           inkscape:connector-curvature="0" />
        <path
           style="fill:#ffc66f;fill-opacity:1;stroke:#a2793b;stroke-width:4;stroke-linecap:butt;stroke-linejoin:miter;stroke-miterlimit:4;stroke-opacity:1;stroke-dasharray:none"
           d="m 333.02128,258.30851 0,50.98582"
           id="path3270-8"
           inkscape:connector-curvature="0" />
        <path
           style="fill:#ffc66f;fill-opacity:1;stroke:#a2793b;stroke-width:4;stroke-linecap:butt;stroke-linejoin:miter;stroke-miterlimit:4;stroke-opacity:1;stroke-dasharray:none"
           d="m 200.71632,244.75531 0,50.98582"
           id="path3270-7"
           inkscape:connector-curvature="0" />
        <path
           style="fill:#ffc66f;stroke:#000000;stroke-width:1px;stroke-linecap:butt;stroke-linejoin:miter;stroke-opacity:1;fill-opacity:1"
           d="M 198.13475,243.14184 C 305.9149,199.25532 305.9149,200.5461 305.9149,200.5461 l 30.33333,57.43971 -111.65248,52.2766 z"
           id="path3268"
           inkscape:connector-curvature="0" />
      </g>
      <path
         inkscape:connector-curvature="0"
         id="path3329"
         d="m 211.04255,247.33687 88.74114,-35.49645 23.55674,38.7234 -91.64539,45.5 z"
         style="fill:#ff6ff4;stroke:#000000;stroke-width:1px;stroke-linecap:butt;stroke-linejoin:miter;stroke-opacity:1;fill-opacity:1" />
    </g>
    <path
       inkscape:connector-curvature="0"
       style="fill:#000000"
       d="m 327.67667,196.35229 c -0.21671,-0.35066 -0.2171,-1.58066 -6.1e-4,-2.73334 0.28598,-1.52448 0.0219,-2.82368 -0.96908,-4.766 -1.31159,-2.57092 -1.3457,-3.08961 -0.91713,-13.94805 0.44219,-11.20371 0.43617,-11.2826 -0.91701,-12.00679 l -1.36212,-0.72899 0.12784,-19.59444 c 0.0703,-10.77694 0.0971,-20.32538 0.0596,-21.21876 -0.0429,-1.02044 -1.0986,-2.6997 -2.83964,-4.51681 -1.52426,-1.59085 -3.78521,-4.70533 -5.02431,-6.92107 -2.06411,-3.69098 -2.22352,-4.32379 -1.90196,-7.55054 0.19304,-1.93706 0.50674,-5.749737 0.69711,-8.472627 0.3294,-4.71131 2.54694,-16.95908 3.18633,-17.59847 0.16586,-0.16587 1.4723,-0.74667 2.90319,-1.29067 3.32934,-1.26576 11.57237,-6.68521 12.04614,-7.91982 0.19909,-0.5188 -0.0901,-2.21789 -0.64271,-3.77578 -2.0951,-5.90673 -2.02316,-7.42421 0.53581,-11.30092 2.58528,-3.9166 3.59541,-4.38297 8.34708,-3.85387 4.56692,0.50851 6.04498,1.20582 6.51357,3.07287 0.53134,2.11704 -0.1159,8.31158 -0.95625,9.15193 -0.35995,0.35995 -0.65342,2.06076 -0.65214,3.77958 0.003,3.89839 1.78302,7.14757 3.91596,7.14757 2.05693,0 4.65433,1.42026 7.47812,4.08902 2.34916,2.2202 2.43678,2.45283 2.86599,7.60962 0.60837,7.30925 2.49079,13.65216 4.44185,14.96707 0.74343,0.50103 0.71616,2.084477 -0.11094,6.442117 -0.38761,2.04216 -0.82585,4.54271 -0.97386,5.55677 -0.14801,1.01406 -0.83121,2.60403 -1.51822,3.53325 -0.68701,0.92924 -1.24911,2.09573 -1.24911,2.59221 0,1.73791 -0.78355,2.91384 -2.55034,3.82748 l -1.78152,0.92126 0,8.06518 c 0,4.43584 0.26409,9.9286 0.58687,12.20614 0.32278,2.27755 0.71588,7.72769 0.87354,12.11143 0.27541,7.65793 0.23188,8.0219 -1.11012,9.28257 -1.81277,1.70292 -2.49806,6.1563 -2.27796,14.80351 0.1162,4.56556 -0.0685,6.97166 -0.58259,7.59115 -0.41399,0.49883 -0.75271,2.05714 -0.75271,3.46292 0,2.24076 0.31568,2.81819 2.55974,4.68224 4.20049,3.48915 3.6896,3.88012 -5.07035,3.88012 l -7.63008,0 0.62252,-3.4345 c 0.4755,-2.62337 0.41644,-4.1945 -0.25012,-6.6525 -0.57459,-2.11894 -0.87605,-6.53614 -0.88261,-12.93325 -0.007,-6.30071 -0.25225,-9.95768 -0.69928,-10.40505 -0.46045,-0.46079 -1.38503,-0.51005 -2.78477,-0.14834 l -2.09547,0.54148 -0.48768,8.00706 c -0.30338,4.98132 -0.24844,9.3981 0.14542,11.68818 0.50837,2.95592 0.45894,3.94692 -0.25093,5.03031 -0.4862,0.74205 -0.96937,2.84498 -1.07367,4.67319 l -0.18965,3.324 -3.50372,0.18397 c -1.94442,0.10208 -3.67908,-0.0998 -3.89775,-0.45361 z"
       id="path2279-6-6" />
    <path
       inkscape:connector-curvature="0"
       style="fill:#000000"
       d="m 411.57738,337.69272 c -0.21671,-0.35066 -0.2171,-1.58066 -6.1e-4,-2.73334 0.28598,-1.52448 0.0219,-2.82368 -0.96908,-4.766 -1.31159,-2.57092 -1.3457,-3.08961 -0.91713,-13.94805 0.44219,-11.20371 0.43617,-11.2826 -0.91701,-12.00679 l -1.36212,-0.72899 0.12784,-19.59443 c 0.0703,-10.77694 0.0971,-20.32538 0.0596,-21.21876 -0.0429,-1.02044 -1.0986,-2.6997 -2.83964,-4.51681 -1.52426,-1.59085 -3.78521,-4.70533 -5.02431,-6.92107 -2.06411,-3.69098 -2.22352,-4.32379 -1.90196,-7.55054 0.19304,-1.93706 0.50674,-5.74974 0.69711,-8.47263 0.3294,-4.71131 2.54694,-16.95908 3.18633,-17.59847 0.16586,-0.16587 1.4723,-0.74667 2.90319,-1.29067 3.32934,-1.26576 11.57237,-6.68521 12.04614,-7.91982 0.19909,-0.5188 -0.0901,-2.21789 -0.64271,-3.77578 -2.0951,-5.90673 -2.02316,-7.42421 0.53581,-11.30092 2.58528,-3.9166 3.59541,-4.38297 8.34708,-3.85387 4.56692,0.50851 6.04498,1.20582 6.51357,3.07287 0.53134,2.11704 -0.1159,8.31158 -0.95625,9.15193 -0.35995,0.35995 -0.65342,2.06076 -0.65214,3.77958 0.003,3.89839 1.78302,7.14757 3.91596,7.14757 2.05693,0 4.65433,1.42026 7.47812,4.08902 2.34916,2.2202 2.43678,2.45283 2.86599,7.60962 0.60837,7.30925 2.49079,13.65216 4.44185,14.96707 0.74343,0.50103 0.71616,2.08448 -0.11094,6.44212 -0.38761,2.04216 -0.82585,4.54271 -0.97386,5.55677 -0.14801,1.01406 -0.83121,2.60403 -1.51822,3.53325 -0.68701,0.92924 -1.24911,2.09573 -1.24911,2.59221 0,1.73791 -0.78355,2.91384 -2.55034,3.82748 l -1.78152,0.92126 0,8.06518 c 0,4.43584 0.26409,9.9286 0.58687,12.20614 0.32278,2.27755 0.71588,7.72768 0.87354,12.11142 0.27541,7.65793 0.23188,8.0219 -1.11012,9.28257 -1.81277,1.70292 -2.49806,6.1563 -2.27796,14.80351 0.1162,4.56556 -0.0685,6.97166 -0.58259,7.59115 -0.41399,0.49883 -0.75271,2.05714 -0.75271,3.46292 0,2.24076 0.31568,2.81819 2.55974,4.68224 4.20049,3.48915 3.6896,3.88012 -5.07035,3.88012 l -7.63008,0 0.62252,-3.4345 c 0.4755,-2.62337 0.41644,-4.1945 -0.25012,-6.6525 -0.57459,-2.11894 -0.87605,-6.53614 -0.88261,-12.93325 -0.007,-6.30071 -0.25225,-9.95768 -0.69928,-10.40505 -0.46045,-0.46079 -1.38503,-0.51005 -2.78477,-0.14834 l -2.09547,0.54148 -0.48768,8.00706 c -0.30338,4.98132 -0.24844,9.3981 0.14542,11.68818 0.50837,2.95592 0.45894,3.94692 -0.25093,5.03031 -0.4862,0.74205 -0.96937,2.84498 -1.07367,4.67319 l -0.18965,3.324 -3.50372,0.18397 c -1.94442,0.10208 -3.67908,-0.0998 -3.89775,-0.45361 z"
       id="path2279-6-6-0" />
    <path
       inkscape:connector-curvature="0"
       style="fill:#000000"
       d="m 214.73341,426.11116 c -0.21671,-0.35066 -0.2171,-1.58066 -6.1e-4,-2.73334 0.28598,-1.52448 0.0219,-2.82368 -0.96908,-4.766 -1.31159,-2.57092 -1.3457,-3.08961 -0.91713,-13.94805 0.44219,-11.20371 0.43617,-11.2826 -0.91701,-12.00679 l -1.36213,-0.72899 0.12784,-19.59444 c 0.0703,-10.77694 0.0971,-20.32538 0.0596,-21.21876 -0.0429,-1.02044 -1.0986,-2.6997 -2.83964,-4.51681 -1.52426,-1.59085 -3.78521,-4.70533 -5.02431,-6.92107 -2.06411,-3.69098 -2.22352,-4.32379 -1.90196,-7.55054 0.19304,-1.93706 0.50674,-5.74974 0.69711,-8.47263 0.3294,-4.71131 2.54694,-16.95908 3.18633,-17.59847 0.16586,-0.16587 1.4723,-0.74667 2.90319,-1.29067 3.32935,-1.26576 11.57238,-6.68521 12.04615,-7.91982 0.19909,-0.5188 -0.0901,-2.21789 -0.64271,-3.77578 -2.0951,-5.90673 -2.02316,-7.42421 0.53581,-11.30092 2.58528,-3.9166 3.59541,-4.38297 8.34708,-3.85387 4.56692,0.50851 6.04498,1.20582 6.51357,3.07287 0.53134,2.11704 -0.1159,8.31158 -0.95625,9.15193 -0.35995,0.35995 -0.65342,2.06076 -0.65214,3.77958 0.003,3.89839 1.78302,7.14757 3.91596,7.14757 2.05693,0 4.65433,1.42026 7.47812,4.08902 2.34916,2.2202 2.43678,2.45283 2.86599,7.60962 0.60837,7.30925 2.49079,13.65216 4.44185,14.96707 0.74343,0.50103 0.71616,2.08448 -0.11094,6.44212 -0.38761,2.04216 -0.82585,4.54271 -0.97386,5.55677 -0.14801,1.01406 -0.83121,2.60403 -1.51822,3.53325 -0.68701,0.92924 -1.24911,2.09573 -1.24911,2.59221 0,1.73791 -0.78355,2.91384 -2.55034,3.82748 l -1.78152,0.92126 0,8.06518 c 0,4.43584 0.26409,9.9286 0.58687,12.20614 0.32278,2.27755 0.71588,7.72769 0.87354,12.11143 0.27541,7.65793 0.23188,8.0219 -1.11012,9.28257 -1.81277,1.70292 -2.49806,6.1563 -2.27796,14.80351 0.1162,4.56556 -0.0685,6.97166 -0.58259,7.59115 -0.41399,0.49883 -0.75271,2.05714 -0.75271,3.46292 0,2.24076 0.31568,2.81819 2.55974,4.68224 4.20049,3.48915 3.6896,3.88012 -5.07035,3.88012 l -7.63008,0 0.62252,-3.4345 c 0.4755,-2.62337 0.41644,-4.1945 -0.25012,-6.6525 -0.57459,-2.11894 -0.87605,-6.53614 -0.88261,-12.93325 -0.007,-6.30071 -0.25225,-9.95768 -0.69928,-10.40505 -0.46045,-0.46079 -1.38503,-0.51005 -2.78477,-0.14834 l -2.09547,0.54148 -0.48768,8.00706 c -0.30338,4.98132 -0.24844,9.3981 0.14542,11.68818 0.50837,2.95592 0.45894,3.94692 -0.25093,5.03031 -0.4862,0.74205 -0.96937,2.84498 -1.07367,4.67319 l -0.18965,3.324 -3.50372,0.18397 c -1.94442,0.10208 -3.67908,-0.0998 -3.89775,-0.45361 z"
       id="path2279-6-6-05" />
    <path
       inkscape:connector-curvature="0"
       style="fill:#000000"
       d="m 342.52063,367.38067 c -0.21671,-0.35066 -0.2171,-1.58066 -6.1e-4,-2.73334 0.28598,-1.52448 0.0219,-2.82368 -0.96908,-4.766 -1.31159,-2.57092 -1.3457,-3.08961 -0.91713,-13.94805 0.44219,-11.20371 0.43617,-11.2826 -0.91701,-12.00679 l -1.36212,-0.72899 0.12784,-19.59444 c 0.0703,-10.77694 0.0971,-20.32538 0.0596,-21.21876 -0.0429,-1.02044 -1.0986,-2.6997 -2.83964,-4.51681 -1.52426,-1.59085 -3.78521,-4.70533 -5.02431,-6.92107 -2.06411,-3.69098 -2.22352,-4.32379 -1.90196,-7.55054 0.19304,-1.93706 0.50674,-5.74974 0.69711,-8.47263 0.3294,-4.71131 2.54694,-16.95908 3.18633,-17.59847 0.16586,-0.16587 1.4723,-0.74667 2.90319,-1.29067 3.32934,-1.26576 11.57237,-6.68521 12.04614,-7.91982 0.19909,-0.5188 -0.0901,-2.21789 -0.64271,-3.77578 -2.0951,-5.90673 -2.02316,-7.42421 0.53581,-11.30092 2.58528,-3.9166 3.59541,-4.38297 8.34708,-3.85387 4.56692,0.50851 6.04498,1.20582 6.51357,3.07287 0.53134,2.11704 -0.1159,8.31158 -0.95625,9.15193 -0.35995,0.35995 -0.65342,2.06076 -0.65214,3.77958 0.003,3.89839 1.78302,7.14757 3.91596,7.14757 2.05693,0 4.65433,1.42026 7.47812,4.08902 2.34916,2.2202 2.43678,2.45283 2.86599,7.60962 0.60837,7.30925 2.49079,13.65216 4.44185,14.96707 0.74343,0.50103 0.71616,2.08448 -0.11094,6.44212 -0.38761,2.04216 -0.82585,4.54271 -0.97386,5.55677 -0.14801,1.01406 -0.83121,2.60403 -1.51822,3.53325 -0.68701,0.92924 -1.24911,2.09573 -1.24911,2.59221 0,1.73791 -0.78355,2.91384 -2.55034,3.82748 l -1.78152,0.92126 0,8.06518 c 0,4.43584 0.26409,9.9286 0.58687,12.20614 0.32278,2.27755 0.71588,7.72769 0.87354,12.11143 0.27541,7.65793 0.23188,8.0219 -1.11012,9.28257 -1.81277,1.70292 -2.49806,6.1563 -2.27796,14.80351 0.1162,4.56556 -0.0685,6.97166 -0.58259,7.59115 -0.41399,0.49883 -0.75271,2.05714 -0.75271,3.46292 0,2.24076 0.31568,2.81819 2.55974,4.68224 4.20049,3.48915 3.6896,3.88012 -5.07035,3.88012 l -7.63008,0 0.62252,-3.4345 c 0.4755,-2.62337 0.41644,-4.1945 -0.25012,-6.6525 -0.57459,-2.11894 -0.87605,-6.53614 -0.88261,-12.93325 -0.007,-6.30071 -0.25225,-9.95768 -0.69928,-10.40505 -0.46045,-0.46079 -1.38503,-0.51005 -2.78477,-0.14834 l -2.09547,0.54148 -0.48768,8.00706 c -0.30338,4.98132 -0.24844,9.3981 0.14542,11.68818 0.50837,2.95592 0.45894,3.94692 -0.25093,5.03031 -0.4862,0.74205 -0.96937,2.84498 -1.07367,4.67319 l -0.18965,3.324 -3.50372,0.18397 c -1.94442,0.10208 -3.67908,-0.0998 -3.89775,-0.45361 z"
       id="path2279-6-6-9" />
    <path
       inkscape:connector-curvature="0"
       style="fill:#000000"
       d="m 378.66248,211.84165 c -0.21671,-0.35066 -0.2171,-1.58066 -6.1e-4,-2.73334 0.28598,-1.52448 0.0219,-2.82368 -0.96908,-4.766 -1.31159,-2.57092 -1.3457,-3.08961 -0.91713,-13.94805 0.44219,-11.20371 0.43617,-11.2826 -0.91701,-12.00679 l -1.36212,-0.72899 0.12784,-19.59444 c 0.0703,-10.77694 0.0971,-20.32538 0.0596,-21.21876 -0.0429,-1.02044 -1.0986,-2.6997 -2.83964,-4.51681 -1.52426,-1.59085 -3.78521,-4.70532 -5.02431,-6.92106 -2.06411,-3.69098 -2.22352,-4.32379 -1.90196,-7.55054 0.19304,-1.93706 0.50674,-5.74974 0.69711,-8.47263 0.3294,-4.71131 2.54694,-16.959077 3.18633,-17.598467 0.16586,-0.16587 1.4723,-0.74667 2.90319,-1.29067 3.32934,-1.26576 11.57237,-6.68521 12.04614,-7.91982 0.19909,-0.5188 -0.0901,-2.21789 -0.64271,-3.77578 -2.0951,-5.90674 -2.02316,-7.42422 0.53581,-11.30093 2.58528,-3.9166 3.59541,-4.38297 8.34708,-3.85387 4.56692,0.50851 6.04498,1.20582 6.51357,3.07287 0.53134,2.11704 -0.1159,8.31159 -0.95625,9.15194 -0.35995,0.35995 -0.65342,2.06076 -0.65214,3.77958 0.003,3.89839 1.78302,7.14757 3.91596,7.14757 2.05693,0 4.65433,1.42026 7.47812,4.08902 2.34916,2.2202 2.43678,2.45283 2.86599,7.60962 0.60837,7.309247 2.49079,13.652157 4.44185,14.967067 0.74343,0.50103 0.71616,2.08448 -0.11094,6.44212 -0.38761,2.04216 -0.82585,4.54271 -0.97386,5.55677 -0.14801,1.01406 -0.83121,2.60403 -1.51822,3.53325 -0.68701,0.92923 -1.24911,2.09572 -1.24911,2.5922 0,1.73791 -0.78355,2.91384 -2.55034,3.82748 l -1.78152,0.92126 0,8.06518 c 0,4.43584 0.26409,9.9286 0.58687,12.20614 0.32278,2.27755 0.71588,7.72769 0.87354,12.11143 0.27541,7.65793 0.23188,8.0219 -1.11012,9.28257 -1.81277,1.70292 -2.49806,6.1563 -2.27796,14.80351 0.1162,4.56556 -0.0685,6.97166 -0.58259,7.59115 -0.41399,0.49883 -0.75271,2.05714 -0.75271,3.46292 0,2.24076 0.31568,2.81819 2.55974,4.68224 4.20049,3.48915 3.6896,3.88012 -5.07035,3.88012 l -7.63008,0 0.62252,-3.4345 c 0.4755,-2.62337 0.41644,-4.1945 -0.25012,-6.6525 -0.57459,-2.11894 -0.87605,-6.53614 -0.88261,-12.93325 -0.007,-6.30071 -0.25225,-9.95768 -0.69928,-10.40505 -0.46045,-0.46079 -1.38503,-0.51005 -2.78477,-0.14834 l -2.09547,0.54148 -0.48768,8.00706 c -0.30338,4.98132 -0.24844,9.3981 0.14542,11.68818 0.50837,2.95592 0.45894,3.94692 -0.25093,5.03031 -0.4862,0.74205 -0.96937,2.84498 -1.07367,4.67319 l -0.18965,3.324 -3.50372,0.18397 c -1.94442,0.10208 -3.67908,-0.0998 -3.89775,-0.45361 z"
       id="path2279-6-6-5" />
    <g
       id="g4318"
       transform="matrix(0.74665533,0,0,0.84251515,-274.38726,65.107328)">
      <g
         id="g4347">
        <path
           transform="matrix(1.339306,0,0,1.1869223,145.34418,-31.315667)"
           inkscape:connector-curvature="0"
           id="path4325-2"
           d="m 293.00709,144.07446 0,38.07802"
           style="fill:#ffd1d1;fill-opacity:1;stroke:#ffc571;stroke-width:5.4000001;stroke-linecap:butt;stroke-linejoin:miter;stroke-miterlimit:4;stroke-opacity:1;stroke-dasharray:none" />
        <path
           transform="matrix(1.339306,0,0,1.1869223,145.34418,-31.315667)"
           inkscape:connector-curvature="0"
           id="path4325"
           d="m 369.16312,143.10638 0,38.07802"
           style="fill:#ffd1d1;fill-opacity:1;stroke:#ffc571;stroke-width:5.4000001;stroke-linecap:butt;stroke-linejoin:miter;stroke-miterlimit:4;stroke-opacity:1;stroke-dasharray:none" />
        <rect
           style="fill:#ffc66f;fill-opacity:1;stroke:#a2793b;stroke-width:4;stroke-miterlimit:4;stroke-opacity:1;stroke-dasharray:none"
           id="rect4316"
           width="179.41844"
           height="45.177307"
           x="508.56738"
           y="99.865242"
           rx="1.0607548"
           ry="0.64539009" />
      </g>
      <text
         transform="scale(0.83914491,1.1916893)"
         sodipodi:linespacing="125%"
         id="text4304"
         y="114.47239"
         x="610.54877"
         style="font-size:29.74000359px;font-style:normal;font-weight:bold;line-height:125%;letter-spacing:0px;word-spacing:0px;fill:#ffffff;fill-opacity:1;stroke:#000000;stroke-width:0.95909458;stroke-opacity:1;font-family:Sans;-inkscape-font-specification:Sans Bold"
         xml:space="preserve"><tspan
           style="font-weight:bold;fill:#ffffff;fill-opacity:1;stroke:#000000;stroke-width:0.95909458;stroke-opacity:1;-inkscape-font-specification:Sans Bold"
           y="114.47239"
           x="610.54877"
           id="tspan4306"
           sodipodi:role="line">Science Fair</tspan></text>
    </g>
  </g>
</svg>
