<?xml version="1.0"?><svg width="460.967" height="386.082" xmlns="http://www.w3.org/2000/svg">
 <title>teacher</title>
 <metadata id="metadata3">EPS converted from  http://aiga.orgsymbolmapsymOpen Clip Art LibraryJean-Victor BalinJean-Victor Balinimage/svg+xmlen</metadata>
 <g>
  <title>Layer 1</title>
  <path d="m118.646004,85.389c20.540001,0 37.193993,-16.651001 37.193993,-37.193001c0,-20.542 -16.653992,-37.195999 -37.193993,-37.195999c-20.543304,0 -37.196304,16.653999 -37.196304,37.195999c0,20.542 16.653,37.193001 37.196304,37.193001z" fill="#000000" id="path2731"/>
  <path d="m21.0637,214.255997l32.678999,0l19.792,-71.858002l8.030998,0l-19.331997,71.858002l115.606297,0l-20.712997,-71.858002l8.438004,0l11.04599,35.223999c5.229004,14.878006 18.411011,18.317001 28.536011,5.636002l40.067993,-48.382996c12.5,-16.25 -10.125,-33.375 -23.25,-19.125l-23.625,28.25c0,0.468994 -4.5,-15.5 -4.5,-15.5c-5.5,-19 -23.5,-37.675003 -50.5,-37.675003l-51.000298,0c-24,0 -42.895,21.008003 -46.801998,34.195l-24.474001,89.236z" fill="#000000" id="path2733"/>
  <path d="m215.518997,234.794006l0,-17.02301l-200.518997,0l0,17.02301l200.518997,0z" fill="#000000" id="path2743"/>
  <path d="m205.531998,388.082001l0,-151.033005l-178.531998,0l0,151.033005l178.531998,0z" fill="#000000" id="path2743-1"/>
  <path d="m337.812988,20.9575l-3.602997,-3.4317l-92.623993,97.263201l3.602997,3.431999l92.623993,-97.2635z" fill="#ffffff" id="path2735-0-9"/>
  <path d="m201.494003,376.549011l0,-130.848007l-168.494003,0l0,130.848007l168.494003,0z" fill="#ffffff" id="path2735-0-4"/>
  <path d="m199.910004,374.908997l0,-127.866989l-165.910004,0l0,127.866989l165.910004,0z" fill="#000000" id="path2743-1-8"/>
  <path d="m21.0637,214.255997l32.678999,0l19.792,-71.858002l8.030998,0l-19.331997,71.858002l115.606297,0l-20.712997,-71.858002l8.438004,0l11.04599,35.223999c5.229004,14.878006 18.411011,18.317001 28.536011,5.636002l40.067993,-48.382996c12.5,-16.25 -10.125,-33.375 -23.25,-19.125l-23.625,28.25c0,0.468994 -4.5,-15.5 -4.5,-15.5c-5.5,-19 -23.5,-37.675003 -50.5,-37.675003l-51.000298,0c-24,0 -42.895,21.008003 -46.801998,34.195l-24.474001,89.236z" fill="#000000" id="svg_1"/>
  <path d="m21.0637,214.255997l32.678999,0l19.792,-71.858002l8.030998,0l-19.331997,71.858002l115.606297,0l-20.712997,-71.858002l8.438004,0l11.04599,35.223999c5.229004,14.878006 18.411011,18.317001 28.536011,5.636002l40.067993,-48.382996c12.5,-16.25 -10.125,-33.375 -23.25,-19.125l-23.625,28.25c0,0.468994 -4.5,-15.5 -4.5,-15.5c-5.5,-19 -23.5,-37.675003 -50.5,-37.675003l-51.000298,0c-24,0 -42.895,21.008003 -46.801998,34.195l-24.474001,89.236z" fill="#000000" id="svg_2"/>
  <path d="m21.0637,214.255997l32.678999,0l19.792,-71.858002l8.030998,0l-19.331997,71.858002l115.606297,0l-20.712997,-71.858002l8.438004,0l11.04599,35.223999c5.229004,14.878006 18.411011,18.317001 28.536011,5.636002l40.067993,-48.382996c12.5,-16.25 -10.125,-33.375 -23.25,-19.125l-23.625,28.25c0,0.468994 -4.5,-15.5 -4.5,-15.5c-5.5,-19 -23.5,-37.675003 -50.5,-37.675003l-51.000298,0c-24,0 -42.895,21.008003 -46.801998,34.195l-24.474001,89.236z" fill="#000000" id="svg_3"/>
  <line y2="21.918" x2="320.033" y1="118.918" x1="240.033" stroke-width="5" stroke="#000000" fill="none" id="svg_4"/>
 </g>
</svg>